<svg xmlns="http://www.w3.org/2000/svg" viewBox="0 0 100 100" width="128" height="128">
  <defs>
    <!-- Dynamic liquid mass gradient -->
    <linearGradient id="bucketLiqFill" x1="0%" y1="0%" x2="0%" y2="100%">
      <stop offset="0%" stop-color="#38bdf8" stop-opacity="0.2" />
      <stop offset="100%" stop-color="#0284c7" stop-opacity="0.5" />
    </linearGradient>
  </defs>

  <!-- Scaled-Up Utility Bucket Structural Frame -->
  <!-- Solid Flat Base Rim Footer -->
  <ellipse cx="50" cy="84" rx="12" ry="3" fill="none" stroke="#38bdf8" stroke-width="2.5" />
  <line x1="38" y1="84" x2="62" y2="84" stroke="#38bdf8" stroke-width="2.5" />
  
  <!-- Tapered Outer Bucket Side Walls -->
  <path d="M 28,34 L 38,84 L 62,84 L 72,34" fill="none" stroke="#38bdf8" stroke-width="2.5" stroke-linejoin="round" />
  
  <!-- Large Top Open Mouth Rim Oval -->
  <ellipse cx="50" cy="34" rx="22" ry="6" fill="none" stroke="#38bdf8" stroke-width="2.5" />
  
  <!-- Mechanical Side Bail Ear Hook & Hanging Handle Bail Loop -->
  <circle cx="70" cy="48" r="1.5" fill="#38bdf8" />
  <path d="M 70,48 Q 82,54 80,64 Q 76,72 68,68" fill="none" stroke="#38bdf8" stroke-width="2" stroke-linecap="round" />

  <!-- Detailed Fluid Mass Fill with Internal Waviness Waves Layout -->
  <path d="M 32.5,58 Q 41.2,53 50,58 T 67.5,58 L 62,84 L 38,84 Z" fill="url(#bucketLiqFill)" />
  <!-- Multi-layered distinct wave surface path contours -->
  <path d="M 32.5,58 Q 41.2,53 50,58 T 67.5,58" fill="none" stroke="#7dd3fc" stroke-width="1.8" stroke-linecap="round" />
  <path d="M 33.5,61 Q 42,57 50,61 T 66.5,61" fill="none" stroke="#38bdf8" stroke-width="1" stroke-opacity="0.6" stroke-linecap="round" stroke-dasharray="4 2" />

  <!-- Heavy High-Vis double-walled Suction Pipe (Clear Outer Diameter / OD Detail) -->
  <!-- Left Wall of Dip Pipe -->
  <path d="M 47,68 L 47,14 L 84,14" fill="none" stroke="#38bdf8" stroke-width="2" stroke-linecap="round" stroke-linejoin="round" />
  <!-- Right Wall of Dip Pipe forming explicit pipe profile thickness -->
  <path d="M 53,68 L 53,20 L 84,20" fill="none" stroke="#38bdf8" stroke-width="2" stroke-linecap="round" stroke-linejoin="round" />
  <!-- Submerged open intake end boundary flange ring -->
  <line x1="47" y1="68" x2="53" y2="68" stroke="#38bdf8" stroke-width="2" />

  <!-- Clear Upward Liquid Vacuum Action Flow Arrow inside the pipe column -->
  <path d="M 50,54 L 50,26 M 45,34 L 50,26 L 55,34" fill="none" stroke="#ffffff" stroke-width="3" stroke-linecap="round" stroke-linejoin="round" />
</svg>
